<svg width="78" height="70" viewBox="0 0 78 70" fill="none" xmlns="http://www.w3.org/2000/svg">
<g id="Frame" clip-path="url(#clip0_102_8648)">
<path id="Vector" d="M2.92257 4.54811H2.97941V18.7041H6.04843V0.227406H3.60458L0.706055 3.58164V6.82217H0.762888L2.92257 4.54811ZM7.92395 4.03645V6.25365H10.7656V3.92275C10.7656 2.78572 11.334 2.50146 11.9591 2.50146C12.5843 2.50146 13.0958 2.72887 13.0958 3.8659V5.40088C13.0958 6.93587 12.9822 7.50439 11.9591 8.58456L10.1973 10.4607C8.49229 12.2799 7.86711 13.4738 7.86711 15.293V18.7041H15.9375V16.1458H10.8225V15.293C10.8225 13.8717 11.334 13.3032 12.1296 12.4505L14.1188 10.347C15.7102 8.64141 16.0512 7.56124 16.0512 5.68514V3.8659C16.0512 1.25073 14.8008 0 12.016 0C9.28796 0 7.92395 1.47814 7.92395 4.03645ZM64.9851 41.5584C61.234 38.6021 56.801 38.3178 55.0392 38.3178C54.1298 38.3178 53.2773 38.3747 52.6521 38.5453L52.4248 38.6021C50.0378 39.1706 46.1163 40.0802 41.5127 45.8222L41.3991 45.9928C41.3422 46.1065 41.2854 46.2202 41.2854 46.3339C41.2854 46.4476 41.2854 46.5613 41.3422 46.6182L41.4559 46.7887C42.1947 48.0394 42.8199 49.1765 43.3314 50.0861C43.5019 50.4272 44.0134 50.5409 44.2976 50.1998C44.3544 50.1429 44.3544 50.0861 44.4112 50.0861C48.3896 44.5715 51.5155 43.8324 53.5615 43.3776L53.7888 43.3208C54.073 43.2639 54.5277 43.2071 55.0392 43.2071C56.0053 43.2071 59.3017 43.3776 61.916 45.4243C64.2462 47.2435 65.3829 50.1429 65.3829 54.0657C65.3829 60.6604 62.2002 63.2188 59.529 64.1852C58.506 64.5832 57.4262 64.7538 56.2895 64.7538C53.5615 64.7538 51.4018 63.6736 51.4018 63.6167L51.2313 63.503C48.958 62.4797 45.4911 60.433 42.2516 53.8951C35.602 40.5351 30.0323 39.2843 26.3381 38.4315L26.1676 38.3747C25.8834 38.3178 25.0878 38.1473 23.7806 38.1473C21.6209 38.1473 17.5289 38.5453 14.0052 41.3878C11.6181 43.3208 8.71962 47.073 8.71962 53.8951C8.71962 58.1021 9.57213 60.831 11.7886 63.7304C12.1865 64.2989 16.0512 69.245 23.4396 69.245C24.5194 69.245 25.6561 69.1313 26.7928 68.9039C28.1568 68.6196 30.2028 67.9943 32.533 66.2887L34.4653 68.0511C34.6927 68.2217 35.0337 68.2217 35.261 67.9943C35.3747 67.8806 35.4315 67.7669 35.3747 67.6532L36.8523 58.3864V58.2727C36.8523 58.1021 36.7955 57.9884 36.6818 57.8747C36.5682 57.761 36.4545 57.7042 36.284 57.7042L27.2474 60.2056H27.0769C26.9633 60.2056 26.8496 60.2625 26.7928 60.3762C26.6791 60.4899 26.6223 60.6605 26.6223 60.7742C26.6223 60.9447 26.6791 61.0584 26.7928 61.1721L28.6683 62.8777C27.7021 63.503 26.6791 63.901 25.7698 64.0715C24.9741 64.2421 24.1784 64.2989 23.3827 64.2989C18.2677 64.2989 15.767 60.9447 15.6533 60.7742L15.5965 60.7173C14.062 58.6707 13.4937 56.9083 13.4937 53.8383C13.4937 49.9155 14.6303 46.9593 16.9037 45.14C19.4612 43.0934 22.7007 42.9797 23.6101 42.9797C24.1216 42.9797 24.5763 43.0365 24.8604 43.0934L25.0878 43.1502C28.0431 43.8324 32.0783 44.7421 37.7049 55.9986C40.6602 61.968 44.3544 65.8339 49.0148 67.8806C49.5831 68.1648 52.4248 69.5293 56.1758 69.5293C57.8809 69.5293 59.5859 69.245 61.1772 68.6197C63.9052 67.5963 70.2138 64.1284 70.2138 53.8383C70.3843 47.2435 67.4289 43.4913 64.9851 41.5584Z" fill="white"/>
<g id="Group">
<path id="Vector_2" d="M24.2357 4.2638V7.67488H22.9854V0.22735H24.804C26.0544 0.22735 26.509 0.852716 26.509 1.87604V2.84251C26.509 3.63843 26.2249 4.09325 25.486 4.2638L26.6795 7.67488H25.3724L24.2357 4.2638ZM24.2357 1.25068V3.58158H24.6335C25.0882 3.58158 25.2587 3.35418 25.2587 2.95622V1.87604C25.2587 1.47808 25.0882 1.25068 24.6335 1.25068H24.2357ZM27.3616 0.22735H30.3737V1.25068H28.6119V3.41103H29.8622V4.43435H28.6119V6.70841H30.3737V7.73174H27.3616V0.22735ZM31.0558 6.08305V5.05972H32.2493V6.08305C32.2493 6.481 32.4198 6.76526 32.8744 6.76526C33.2723 6.76526 33.4428 6.481 33.4428 6.08305V5.79879C33.4428 5.34398 33.2723 5.11657 32.8744 4.71861L32.1356 3.97954C31.3968 3.29733 31.1126 2.84251 31.1126 1.98974V1.76234C31.1126 0.852716 31.6809 0.113647 32.8744 0.113647C34.1248 0.113647 34.6363 0.739013 34.6363 1.81919V2.44456H33.4996V1.81919C33.4996 1.36438 33.3291 1.19382 32.9313 1.19382C32.5903 1.19382 32.3629 1.36438 32.3629 1.81919V1.98974C32.3629 2.3877 32.5903 2.67196 32.9313 3.01307L33.7269 3.80899C34.4089 4.49121 34.7499 4.94602 34.7499 5.74194V6.08305C34.7499 7.10637 34.1816 7.84544 32.9313 7.84544C31.5673 7.78859 31.0558 7.04952 31.0558 6.08305ZM35.432 0.22735H37.3075C38.5578 0.22735 39.0125 0.852716 39.0125 1.87604V3.46788C39.0125 4.49121 38.5578 5.17342 37.3075 5.17342H36.6823V7.73174H35.432V0.22735ZM36.6823 1.25068V4.20695H37.137C37.5916 4.20695 37.7621 3.97954 37.7621 3.58158V1.87604C37.7621 1.47808 37.5916 1.25068 37.137 1.25068H36.6823ZM39.8082 5.74194V2.10345C39.8082 0.909567 40.3765 0.113647 41.6837 0.113647C42.9908 0.113647 43.616 0.966419 43.616 2.10345V5.74194C43.616 6.87896 43.0477 7.73174 41.6837 7.73174C40.3765 7.78859 39.8082 6.87896 39.8082 5.74194ZM42.3657 5.96934V1.93289C42.3657 1.47808 42.1952 1.13697 41.7405 1.13697C41.2858 1.13697 41.1153 1.47808 41.1153 1.93289V5.96934C41.1153 6.42415 41.2858 6.76526 41.7405 6.76526C42.1383 6.70841 42.3657 6.42415 42.3657 5.96934ZM45.4915 2.95622V7.67488H44.4117V0.22735H45.662L47.0261 4.49121V0.22735H48.0491V7.67488H46.9692L45.4915 2.95622ZM48.9016 6.08305V5.05972H50.0951V6.08305C50.0951 6.481 50.2656 6.76526 50.7202 6.76526C51.1181 6.76526 51.2886 6.481 51.2886 6.08305V5.79879C51.2886 5.34398 51.1181 5.11657 50.7202 4.71861L49.9814 3.97954C49.2426 3.29733 48.9584 2.84251 48.9584 1.98974V1.76234C48.9584 0.852716 49.5267 0.113647 50.7202 0.113647C51.9706 0.113647 52.4821 0.739013 52.4821 1.81919V2.44456H51.3454V1.81919C51.3454 1.36438 51.1749 1.19382 50.7771 1.19382C50.4361 1.19382 50.2087 1.36438 50.2087 1.81919V1.98974C50.2087 2.3877 50.4361 2.67196 50.7771 3.01307L51.5728 3.80899C52.2548 4.49121 52.5958 4.94602 52.5958 5.74194V6.08305C52.5958 7.10637 52.0274 7.84544 50.7771 7.84544C49.3562 7.78859 48.9016 7.04952 48.9016 6.08305ZM53.2209 0.22735H54.4713V7.67488H53.2209V0.22735ZM55.3238 0.22735H57.1425C58.3928 0.22735 58.7906 0.795864 58.7906 1.87604V2.61511C58.7906 3.24047 58.5633 3.63843 58.0518 3.80899C58.677 3.97954 58.9611 4.3775 58.9611 5.05972V6.02619C58.9611 7.10637 58.5065 7.67488 57.2561 7.67488H55.3238V0.22735ZM56.631 3.35418H57.0856C57.4835 3.35418 57.654 3.12677 57.654 2.72881V1.81919C57.654 1.42123 57.4835 1.19382 57.0288 1.19382H56.5741L56.631 3.35418ZM56.631 4.32065V6.65156H57.1993C57.5971 6.65156 57.8245 6.42415 57.8245 6.02619V4.88917C57.8245 4.49121 57.654 4.2638 57.1993 4.2638H56.631V4.32065ZM59.7568 0.22735H61.0072V6.65156H62.4848V7.67488H59.7568V0.22735ZM63.2237 0.22735H66.2359V1.25068H64.474V3.41103H65.7244V4.43435H64.474V6.70841H66.2359V7.73174H63.2237V0.22735Z" fill="white"/>
</g>
<g id="Group_2">
<path id="Vector_3" d="M22.9854 16.7143V13.0759C22.9854 11.882 23.5537 11.0861 24.8609 11.0861C26.2249 11.0861 26.6227 11.882 26.6227 12.9622V13.8718H25.486V12.9053C25.486 12.4505 25.3155 12.1662 24.8609 12.1662C24.4062 12.1662 24.2357 12.5073 24.2357 12.9622V16.9986C24.2357 17.4534 24.4062 17.7945 24.8609 17.7945C25.3155 17.7945 25.486 17.5103 25.486 17.0555V15.691H26.6227V16.9986C26.6227 18.0788 26.168 18.8747 24.8609 18.8747C23.5537 18.761 22.9854 17.9082 22.9854 16.7143ZM27.4184 16.7143V13.0759C27.4184 11.882 27.9867 11.0861 29.2939 11.0861C30.6011 11.0861 31.2263 11.9388 31.2263 13.0759V16.7143C31.2263 17.8514 30.6579 18.7041 29.2939 18.7041C27.9867 18.761 27.4184 17.9082 27.4184 16.7143ZM29.9759 16.9418V12.9053C29.9759 12.4505 29.8054 12.1094 29.3507 12.1094C28.8961 12.1094 28.7256 12.4505 28.7256 12.9053V16.9418C28.7256 17.3966 28.8961 17.7377 29.3507 17.7377C29.8054 17.6808 29.9759 17.3966 29.9759 16.9418ZM33.1018 13.9855V18.7041H32.0219V11.2566H33.2723L34.6363 15.5205V11.2566H35.6593V18.7041H34.5794L33.1018 13.9855ZM36.455 17.0555V16.0321H37.6485V17.0555C37.6485 17.4534 37.819 17.7377 38.2736 17.7377C38.6715 17.7377 38.842 17.4534 38.842 17.0555V16.7712C38.842 16.3164 38.6715 16.089 38.2736 15.691L37.5348 14.952C36.796 14.2697 36.5118 13.8149 36.5118 12.9622V12.7348C36.5118 11.8251 37.0801 11.0861 38.2736 11.0861C39.524 11.0861 40.0355 11.7114 40.0355 12.7916V13.417H38.8988V12.7916C38.8988 12.3368 38.7283 12.1662 38.3305 12.1662C37.9895 12.1662 37.7621 12.3368 37.7621 12.7916V12.9622C37.7621 13.3601 37.9895 13.6444 38.3305 13.9855L39.1262 14.7814C39.8082 15.4636 40.1492 15.9184 40.1492 16.7143V17.0555C40.1492 18.0788 39.5808 18.8179 38.3305 18.8179C36.9665 18.761 36.455 18.0219 36.455 17.0555ZM44.4685 11.1998V16.8281C44.4685 17.9651 43.957 18.761 42.7067 18.761C41.3995 18.761 40.8312 18.0219 40.8312 16.8281V11.1998H42.0815V16.9986C42.0815 17.4534 42.252 17.7377 42.7067 17.7377C43.1614 17.7377 43.3319 17.4534 43.3319 16.9986V11.1998H44.4685ZM48.7879 13.8149L47.8786 18.6473H47.3102L46.4009 13.8149V18.6473H45.3779V11.1998H46.8555L47.6512 15.4068L48.3901 11.1998H49.9814V18.6473H48.8447V13.8149H48.7879ZM50.7771 11.1998H52.6526C53.9029 11.1998 54.3576 11.8251 54.3576 12.8485V14.4403C54.3576 15.4636 53.9029 16.1458 52.6526 16.1458H52.0274V18.7041H50.7771V11.1998ZM52.0274 12.2231V15.1794H52.4821C52.9368 15.1794 53.1073 14.952 53.1073 14.554V12.8485C53.1073 12.4505 52.9368 12.2231 52.4821 12.2231H52.0274ZM54.7554 11.1998H58.1086V12.2231H57.0856V18.6473H55.8353V12.2231H54.8123L54.7554 11.1998ZM58.677 11.1998H59.9273V18.6473H58.677V11.1998ZM60.6662 16.7143V13.0759C60.6662 11.882 61.2345 11.0861 62.5417 11.0861C63.8489 11.0861 64.474 11.9388 64.474 13.0759V16.7143C64.474 17.8514 63.9057 18.7041 62.5417 18.7041C61.2345 18.761 60.6662 17.9082 60.6662 16.7143ZM63.2237 16.9418V12.9053C63.2237 12.4505 63.0532 12.1094 62.5985 12.1094C62.1438 12.1094 61.9733 12.4505 61.9733 12.9053V16.9418C61.9733 17.3966 62.1438 17.7377 62.5985 17.7377C62.9963 17.6808 63.2237 17.3966 63.2237 16.9418ZM66.2927 13.9855V18.7041H65.2129V11.2566H66.4632L67.8272 15.5205V11.2566H68.8502V18.7041H67.7704L66.2927 13.9855Z" fill="white"/>
</g>
<g id="Group_3">
<path id="Vector_4" d="M22.8145 29.6196L24.2353 22.1721H25.6561L27.077 29.6196H25.7698L25.5425 28.2552H24.2353L24.008 29.6196H22.8145ZM24.349 27.2887H25.372L24.8605 24.2756L24.349 27.2887ZM28.6683 24.9578V29.6764H27.5885V22.2289H28.8388L30.2028 26.4928V22.2289H31.2259V29.6764H30.146L28.6683 24.9578ZM35.7726 24.1619V27.6298C35.7726 28.7668 35.3179 29.6196 33.9539 29.6196H32.0215V22.1721H33.9539C35.2611 22.1721 35.7726 23.0248 35.7726 24.1619ZM33.7834 28.5963C34.2949 28.5963 34.5222 28.312 34.5222 27.8572V23.9344C34.5222 23.4796 34.3517 23.1954 33.7834 23.1954H33.2719V28.5963H33.7834ZM37.7049 22.1721H39.5804C40.8308 22.1721 41.2854 22.7974 41.2854 23.8207V25.4126C41.2854 26.4359 40.8308 27.1181 39.5804 27.1181H38.9553V29.6764H37.7049V22.1721ZM38.9553 23.1954V26.1517H39.4099C39.8646 26.1517 40.0351 25.9242 40.0351 25.5263V23.8207C40.0351 23.4228 39.8646 23.1954 39.4099 23.1954H38.9553ZM43.2178 26.2085V29.6196H41.9674V22.1721H43.7861C45.0365 22.1721 45.4911 22.7974 45.4911 23.8207V24.7872C45.4911 25.5831 45.207 26.0379 44.4681 26.2085L45.6616 29.6196H44.3545L43.2178 26.2085ZM43.2178 23.1954V25.5263H43.6156C44.0703 25.5263 44.2408 25.2989 44.2408 24.9009V23.8207C44.2408 23.4228 44.0703 23.1954 43.6156 23.1954H43.2178ZM46.23 27.6866V24.0481C46.23 22.8543 46.7983 22.0583 48.1055 22.0583C49.4127 22.0583 50.0378 22.9111 50.0378 24.0481V27.6866C50.0378 28.8237 49.4695 29.6764 48.1055 29.6764C46.7983 29.7333 46.23 28.8805 46.23 27.6866ZM48.7875 27.914V23.8776C48.7875 23.4228 48.617 23.0817 48.1623 23.0817C47.7077 23.0817 47.5372 23.4228 47.5372 23.8776V27.914C47.5372 28.3689 47.7077 28.71 48.1623 28.71C48.617 28.6531 48.7875 28.3689 48.7875 27.914ZM54.5845 24.1619V27.6298C54.5845 28.7668 54.1299 29.6196 52.7659 29.6196H50.8335V22.1721H52.7659C54.073 22.1721 54.5845 23.0248 54.5845 24.1619ZM52.5954 28.5963C53.1069 28.5963 53.3342 28.312 53.3342 27.8572V23.9344C53.3342 23.4796 53.1637 23.1954 52.5954 23.1954H52.0839V28.5963H52.5954ZM58.9607 22.1721V27.8003C58.9607 28.9374 58.4492 29.7333 57.1989 29.7333C55.8917 29.7333 55.3234 28.9942 55.3234 27.8003V22.1721H56.5737V27.9709C56.5737 28.4257 56.7442 28.71 57.1989 28.71C57.6536 28.71 57.8241 28.4257 57.8241 27.9709V22.1721H58.9607ZM59.6996 27.6866V24.0481C59.6996 22.8543 60.2679 22.0583 61.5751 22.0583C62.9391 22.0583 63.3369 22.8543 63.3369 23.9344V24.8441H62.2003V23.8776C62.2003 23.4228 62.0298 23.1385 61.5751 23.1385C61.1204 23.1385 60.9499 23.4796 60.9499 23.9344V27.9709C60.9499 28.4257 61.1204 28.7668 61.5751 28.7668C62.0298 28.7668 62.2003 28.4826 62.2003 28.0277V26.6633H63.3369V27.9709C63.3369 29.0511 62.8823 29.847 61.5751 29.847C60.2679 29.7333 59.6996 28.8805 59.6996 27.6866ZM63.9621 22.1721H67.3153V23.1954H66.2923V29.6196H65.042V23.1954H64.019L63.9621 22.1721ZM67.8837 22.1721H69.134V29.6196H67.8837V22.1721ZM69.8728 27.6866V24.0481C69.8728 22.8543 70.4412 22.0583 71.7484 22.0583C73.0555 22.0583 73.6807 22.9111 73.6807 24.0481V27.6866C73.6807 28.8237 73.1124 29.6764 71.7484 29.6764C70.4412 29.7333 69.8728 28.8805 69.8728 27.6866ZM72.4304 27.914V23.8776C72.4304 23.4228 72.2599 23.0817 71.8052 23.0817C71.3505 23.0817 71.18 23.4228 71.18 23.8776V27.914C71.18 28.3689 71.3505 28.71 71.8052 28.71C72.203 28.6531 72.4304 28.3689 72.4304 27.914ZM75.4426 24.9578V29.6764H74.3627V22.2289H75.6131L76.9771 26.4928V22.2289H78.0001V29.6764H76.9202L75.4426 24.9578Z" fill="white"/>
</g>
</g>
<defs>
<clipPath id="clip0_102_8648">
<rect width="77.294" height="69.5293" fill="white" transform="translate(0.706055)"/>
</clipPath>
</defs>
</svg>
