<svg width="77" height="70" viewBox="0 0 77 70" fill="none" xmlns="http://www.w3.org/2000/svg">
<g id="Frame" clip-path="url(#clip0_102_8642)">
<path id="Vector" d="M8.53619 4.69479C8.53619 1.99663 7.35508 0 4.29494 0C1.18111 0 0 1.72682 0 4.42497V7.0152C0 9.87525 1.12742 11.3323 3.2212 11.3323C4.456 11.3323 5.20761 10.7387 5.63711 9.92921V13.7066C5.63711 14.7859 5.20761 15.4874 4.18756 15.4874C3.11383 15.4874 2.73802 14.8938 2.73802 13.7606V12.5734H0.0536867V13.4908C0.0536867 16.081 0.966361 17.8618 4.24125 17.8618C7.30139 17.8618 8.53619 15.8652 8.53619 13.113V4.69479ZM5.63711 7.39294C5.58342 8.36428 5.15393 9.01184 4.24125 9.01184C3.2212 9.01184 2.8454 8.41824 2.8454 7.23106V4.20912C2.8454 3.0759 3.27489 2.42834 4.24125 2.42834C5.20761 2.42834 5.58342 3.0759 5.58342 4.20912V7.39294H5.63711ZM57.4985 50.1317L47.2443 44.1958V32.2699C47.2443 32.0001 47.1369 31.7843 46.8685 31.6763L36.2385 25.5245C36.0238 25.4166 35.7554 25.4166 35.5406 25.5245L24.9106 31.6763C24.6959 31.7843 24.5348 32.0541 24.5348 32.2699V44.1958L14.2807 50.1317C14.0659 50.2396 13.9049 50.5095 13.9049 50.7253V63.0289C13.9049 63.2987 14.0122 63.5146 14.2807 63.6225L24.9106 69.7743C25.018 69.8283 25.1254 69.8822 25.2864 69.8822C25.3938 69.8822 25.5549 69.8283 25.6623 69.7743L35.9164 63.8383L46.1706 69.7743C46.278 69.8283 46.3853 69.8822 46.5464 69.8822C46.7074 69.8822 46.8148 69.8283 46.9222 69.7743L57.5522 63.6225C57.7669 63.5146 57.928 63.2448 57.928 63.0289V50.7253C57.8206 50.4555 57.7132 50.2396 57.4985 50.1317ZM35.1648 61.8417L26.6286 56.8771L35.1648 51.9125V61.8417ZM45.0968 44.5735L36.5607 49.5381V39.6629L45.0968 44.5735ZM35.1648 49.4842L26.6286 44.5196L35.1648 39.555V49.4842ZM37.3123 50.7253L46.5464 45.383L55.7805 50.7253L46.5464 56.0677L37.3123 50.7253ZM45.7948 43.3324L37.2586 38.3678L45.7948 33.4032V43.3324ZM34.4669 38.4217L25.9307 43.3863V33.5111L34.4669 38.4217ZM24.5885 67.9935L15.3544 62.6512V51.9665L24.5885 57.3088V67.9935ZM25.9844 67.9935V58.1183L34.5206 63.0829L25.9844 67.9935ZM56.4247 62.6512L47.1906 67.9935V57.3088L56.4247 51.9665V62.6512Z" fill="white"/>
<g id="Group">
<path id="Vector_2" d="M13.0996 0.43171H14.227V7.01521H13.0996V0.43171ZM15.7839 2.91401V7.06917H14.8713V0.485673H15.945L17.1261 4.26309V0.485673H18.0388V7.06917H17.0724L15.7839 2.91401ZM22.0116 2.21249V5.28839C22.0116 6.31369 21.5821 7.06917 20.401 7.06917H18.683V0.485673H20.401C21.6358 0.43171 22.0116 1.18719 22.0116 2.21249ZM20.2936 6.1518C20.7231 6.1518 20.9379 5.88198 20.9379 5.50424V2.0506C20.9379 1.67286 20.7768 1.40305 20.2936 1.40305H19.8105V6.20576L20.2936 6.1518ZM25.9307 0.43171V5.39632C25.9307 6.42161 25.5012 7.06917 24.3738 7.06917C23.1927 7.06917 22.7095 6.42161 22.7095 5.39632V0.43171H23.837V5.50424C23.837 5.88198 23.998 6.1518 24.3738 6.1518C24.7496 6.1518 24.9107 5.88198 24.9107 5.50424V0.43171H25.9307ZM26.5213 5.61217V4.74876H27.5413V5.66613C27.5413 6.04387 27.7024 6.25973 28.0782 6.25973C28.4003 6.25973 28.5614 6.04387 28.5614 5.66613V5.39632C28.5614 5.01857 28.4003 4.80272 28.0782 4.47894L27.434 3.83139C26.7897 3.18383 26.5213 2.80609 26.5213 2.0506V1.83475C26.5213 1.0253 27.0045 0.377747 28.0782 0.377747C29.2056 0.377747 29.6351 0.917378 29.6351 1.88871V2.42834H28.6151V1.83475C28.6151 1.45701 28.454 1.29512 28.0782 1.29512C27.7561 1.29512 27.5413 1.45701 27.5413 1.83475V1.99664C27.5413 2.37438 27.7561 2.59023 28.0782 2.91401L28.7761 3.61553C29.3667 4.20913 29.6888 4.58687 29.6888 5.34235V5.66613C29.6888 6.5835 29.2056 7.23106 28.0782 7.23106C26.9508 7.12313 26.5213 6.47558 26.5213 5.61217ZM29.9572 0.43171H32.91V1.34908H31.9973V7.01521H30.8699V1.34908H29.9572V0.43171ZM34.5206 3.99327V7.01521H33.4469V0.43171H35.0575C36.1849 0.43171 36.5607 0.971341 36.5607 1.88871V2.75212C36.5607 3.45364 36.2923 3.88535 35.7017 4.04724L36.7755 7.01521H35.5943L34.5206 3.99327ZM34.5206 1.34908V3.39968H34.8964C35.2722 3.39968 35.4333 3.18383 35.4333 2.86005V1.88871C35.4333 1.51097 35.2722 1.34908 34.8964 1.34908H34.5206ZM39.1377 4.53291V7.01521H38.0103V4.53291L36.7755 0.43171H37.9029L38.5471 2.91401L39.1914 0.43171H40.2651L39.1377 4.53291ZM41.4462 6.04387L40.9093 7.55484H40.2651L40.4262 5.98991H41.4462V6.04387ZM43.2179 0.43171H44.3453V7.01521H43.2179V0.43171ZM45.9022 2.91401V7.06917H44.9895V0.485673H46.0633L47.2444 4.26309V0.485673H48.157V7.06917H47.1907L45.9022 2.91401ZM49.7676 2.91401V7.06917H48.855V0.485673H49.9287L51.1098 4.26309V0.485673H52.0225V7.06917H51.0561L49.7676 2.91401ZM52.7204 5.34235V2.15853C52.7204 1.13323 53.2036 0.377747 54.3847 0.377747C55.5658 0.377747 56.049 1.13323 56.049 2.15853V5.34235C56.049 6.36765 55.5658 7.12313 54.3847 7.12313C53.2036 7.12313 52.7204 6.36765 52.7204 5.34235ZM54.9753 5.50424V1.94268C54.9753 1.56493 54.8142 1.24116 54.3847 1.24116C54.0089 1.24116 53.8478 1.51097 53.8478 1.94268V5.50424C53.8478 5.88198 54.0089 6.20576 54.3847 6.20576C54.7605 6.20576 54.9753 5.93595 54.9753 5.50424ZM60.2902 0.43171L59.0554 7.01521H57.8743L56.6395 0.43171H57.767L58.5186 5.01857L59.2702 0.43171H60.2902ZM60.1292 7.01521L61.364 0.43171H62.5988L63.8336 7.01521H62.7061L62.4914 5.82802H61.364L61.1492 7.01521H60.1292ZM61.4713 4.96461H62.3303L61.9008 2.32042L61.4713 4.96461ZM63.7262 0.43171H66.679V1.34908H65.7663V7.01521H64.6389V1.34908H63.7262V0.43171ZM67.2158 0.43171H68.3433V7.01521H67.2158V0.43171ZM69.0412 5.34235V2.15853C69.0412 1.13323 69.5244 0.377747 70.7055 0.377747C71.8866 0.377747 72.3698 1.13323 72.3698 2.15853V5.34235C72.3698 6.36765 71.8866 7.12313 70.7055 7.12313C69.5244 7.12313 69.0412 6.36765 69.0412 5.34235ZM71.2423 5.50424V1.94268C71.2423 1.56493 71.0813 1.24116 70.6518 1.24116C70.276 1.24116 70.1149 1.51097 70.1149 1.94268V5.50424C70.1149 5.88198 70.276 6.20576 70.6518 6.20576C71.0813 6.20576 71.2423 5.93595 71.2423 5.50424ZM73.9804 2.91401V7.06917H73.0677V0.485673H74.1414L75.3225 4.26309V0.485673H76.2352V7.06917H75.2688L73.9804 2.91401Z" fill="white"/>
</g>
<g id="Group_2">
<path id="Vector_3" d="M12.8848 17.4841L14.1196 10.9006H15.3544L16.5891 17.4841H15.4617L15.247 16.2969H14.1196L13.9048 17.4841H12.8848ZM14.2806 15.3795H15.1396L14.7101 12.7353L14.2806 15.3795ZM17.985 13.3289V17.4841H17.0723V10.9006H18.1461L19.3272 14.678V10.9006H20.2398V17.4841H19.2735L17.985 13.3289ZM24.2127 12.6274V15.7033C24.2127 16.7286 23.7832 17.4841 22.6021 17.4841H20.8841V10.9006H22.6021C23.7832 10.9006 24.2127 11.656 24.2127 12.6274ZM22.4947 16.5667C22.9242 16.5667 23.1389 16.2969 23.1389 15.9191V12.4655C23.1389 12.0877 22.9779 11.8179 22.4947 11.8179H22.0115V16.6206L22.4947 16.5667ZM25.9306 10.9006H27.0581V17.4841H25.9306V10.9006ZM28.6687 13.3289V17.4841H27.756V10.9006H28.8297L30.0108 14.678V10.9006H30.9235V17.4841H29.9571L28.6687 13.3289ZM31.6214 10.9006H34.1984V11.8179H32.6952V13.7066H33.8226V14.624H32.6952V17.538H31.5677L31.6214 10.9006ZM35.809 14.4621V17.4841H34.6816V10.9006H36.2922C37.4196 10.9006 37.7954 11.4402 37.7954 12.3576V13.221C37.7954 13.9225 37.527 14.3542 36.9364 14.5161L38.0102 17.4841H36.829L35.809 14.4621ZM35.809 11.764V13.8146H36.1848C36.5606 13.8146 36.7217 13.5987 36.7217 13.2749V12.3036C36.7217 11.9259 36.5606 11.764 36.1848 11.764H35.809ZM38.3323 17.4841L39.5671 10.9006H40.8019L42.0367 17.4841H40.9092L40.6945 16.2969H39.5134L39.2986 17.4841H38.3323ZM39.6744 15.3795H40.5334L40.1039 12.7353L39.6744 15.3795ZM42.4125 16.0271V15.1636H43.4325V16.081C43.4325 16.4588 43.5936 16.6746 43.9694 16.6746C44.2915 16.6746 44.4526 16.4588 44.4526 16.081V15.8112C44.4526 15.4335 44.2915 15.2176 43.9694 14.8938L43.3251 14.2463C42.6809 13.5987 42.4125 13.221 42.4125 12.4655V12.2496C42.4125 11.4402 42.8956 10.7926 43.9694 10.7926C45.0968 10.7926 45.5263 11.3323 45.5263 12.3036V12.8432H44.5062V12.2496C44.5062 11.8719 44.3452 11.71 43.9694 11.71C43.6473 11.71 43.4325 11.8719 43.4325 12.2496V12.4115C43.4325 12.7893 43.6473 13.0051 43.9694 13.3289L44.6673 14.0304C45.2579 14.624 45.58 15.0018 45.58 15.7572V16.081C45.58 16.9984 45.0968 17.6459 43.9694 17.6459C42.842 17.6459 42.4125 16.8905 42.4125 16.0271ZM45.9021 10.9006H48.8549V11.8179H47.9422V17.4841H46.8148V11.8179H45.9021V10.9006ZM50.5192 14.4621V17.4841H49.3917V10.9006H51.0023C52.1298 10.9006 52.5056 11.4402 52.5056 12.3576V13.221C52.5056 13.9225 52.2371 14.3542 51.6466 14.5161L52.7203 17.4841H51.5392L50.5192 14.4621ZM50.5192 11.764V13.8146H50.895C51.2708 13.8146 51.4318 13.5987 51.4318 13.2749V12.3036C51.4318 11.9259 51.2708 11.764 50.895 11.764H50.5192ZM56.371 10.9006V15.8652C56.371 16.8905 55.9415 17.538 54.8141 17.538C53.633 17.538 53.1498 16.8905 53.1498 15.8652V10.9006H54.2772V15.9731C54.2772 16.3508 54.4383 16.6206 54.8141 16.6206C55.1899 16.6206 55.351 16.3508 55.351 15.9731V10.9006H56.371ZM57.0689 15.7572V12.5734C57.0689 11.5481 57.5521 10.7926 58.7332 10.7926C59.968 10.7926 60.2901 11.4942 60.2901 12.4655V13.221H59.2701V12.3576C59.2701 11.9259 59.109 11.71 58.7332 11.71C58.3574 11.71 58.1964 11.9798 58.1964 12.4115V15.9731C58.1964 16.3508 58.3574 16.6746 58.7332 16.6746C59.109 16.6746 59.2701 16.4048 59.2701 16.0271V14.7859H60.2901V15.9191C60.2901 16.8365 59.9143 17.538 58.7332 17.538C57.5521 17.538 57.0689 16.7825 57.0689 15.7572ZM60.5049 10.9006H63.4577V11.8179H62.545V17.4841H61.4176V11.8179H60.5049V10.9006ZM67.2157 10.9006V15.8652C67.2157 16.8905 66.7862 17.538 65.6588 17.538C64.4777 17.538 63.9945 16.8905 63.9945 15.8652V10.9006H65.122V15.9731C65.122 16.3508 65.283 16.6206 65.6588 16.6206C66.0346 16.6206 66.1957 16.3508 66.1957 15.9731V10.9006H67.2157ZM68.9874 14.4621V17.4841H67.86V10.9006H69.4706C70.598 10.9006 70.9738 11.4402 70.9738 12.3576V13.221C70.9738 13.9225 70.7054 14.3542 70.1148 14.5161L71.1886 17.4841H70.0074L68.9874 14.4621ZM68.9874 11.764V13.8146H69.3632C69.739 13.8146 69.9001 13.5987 69.9001 13.2749V12.3036C69.9001 11.9259 69.739 11.764 69.3632 11.764H68.9874ZM71.6717 10.9006H74.3024V11.8179H72.7992V13.7066H73.8729V14.624H72.7992V16.6206H74.3024V17.538H71.6717V10.9006Z" fill="white"/>
</g>
</g>
<defs>
<clipPath id="clip0_102_8642">
<rect width="76.2351" height="69.8822" fill="white"/>
</clipPath>
</defs>
</svg>
