<svg width="251" height="57" viewBox="0 0 251 57" fill="none" xmlns="http://www.w3.org/2000/svg">
<g clip-path="url(#clip0_83_4216)">
<path d="M89.1902 15.2467C86.9125 12.5939 83.8757 10.1352 80.1787 8.00001C76.7128 6.02659 73.0488 4.44138 69.2198 3.27673C62.0898 1.07685 54.6298 0.00925584 47.1698 0.0416071C39.6767 0.00925584 32.2167 1.07685 25.0538 3.27673C21.2578 4.44138 17.5938 6.02659 14.1608 8.00001C13.6657 8.29117 13.1706 8.58233 12.7084 8.87349C12.4444 9.03525 12.2133 9.19701 11.9492 9.35876C9.40755 11.0087 7.12993 12.9821 5.1494 15.2467C1.78248 19.1288 0 23.4963 0 28.0578C0 32.6193 1.78248 36.9544 5.1494 40.8689C7.12993 43.1335 9.44056 45.1069 11.9492 46.7568C12.2133 46.9186 12.4444 47.0803 12.7084 47.2421C13.1706 47.5332 13.6657 47.8244 14.1608 48.1156C17.5938 50.089 21.2578 51.6742 25.0538 52.8388C32.2167 55.0387 39.6767 56.1063 47.1698 56.074C54.6628 56.1063 62.0898 55.0387 69.2198 52.8712C73.0488 51.7065 76.7128 50.1213 80.1457 48.1479C83.8427 46.0127 86.8795 43.554 89.1572 40.9012C92.5241 36.9867 94.2735 32.6517 94.2735 28.0901C94.2735 23.5286 92.5571 19.1288 89.1902 15.2467ZM88.0679 36.6956C87.9358 36.8897 87.6717 36.9544 87.4737 36.825C87.3747 36.7603 87.3086 36.6309 87.2756 36.5338C87.1766 35.8544 87.0446 35.2074 86.8465 34.5604C86.3514 32.9105 85.6252 31.3576 84.6679 29.9018C83.9417 30.7753 83.1495 31.6488 82.2913 32.5222C83.4466 34.5604 84.0078 36.5338 83.9087 38.3455C83.8757 38.9278 83.7767 39.5101 83.5786 40.0924C83.0505 41.5482 82.0932 42.7776 80.8389 43.6834C80.3438 44.0069 79.8486 44.3305 79.3535 44.654C76.6138 46.1745 72.7847 47.0803 68.2295 47.3391C67.2722 47.4038 66.282 47.4362 65.2587 47.4362C63.0141 47.4362 60.8025 47.3068 58.5579 47.048C57.0725 46.8862 55.5541 46.6597 54.0026 46.4009C51.791 46.0127 49.5134 45.5274 47.2028 44.9128C45.8164 44.5569 44.43 44.1363 43.0437 43.7158C42.6806 43.5864 42.2845 43.4893 41.9214 43.3599C31.5565 39.9307 22.6771 34.8192 17.0326 29.5459C16.2404 30.3871 15.5142 31.2606 14.854 32.1987C19.9704 36.9544 27.3314 41.4188 36.1778 44.8804C37.5642 45.4304 38.9836 45.9157 40.436 46.4333L40.8321 46.5627C42.9776 47.2744 45.1232 47.8891 47.2028 48.4391C48.6882 48.8273 50.1736 49.1508 51.659 49.4419C52.9133 49.7008 54.1677 49.8949 55.422 50.089C57.1385 50.3478 58.8549 50.5419 60.5054 50.6713C60.7365 50.6713 60.9345 50.8978 60.9015 51.1242C60.9015 51.3183 60.7365 51.4801 60.5384 51.5124C58.8549 51.8036 57.1385 52.0624 55.389 52.2565C52.6823 52.5477 49.9755 52.6771 47.2688 52.6771C44.5291 52.6771 41.8223 52.5153 39.0826 52.2242C37.3331 52.03 35.5836 51.7712 33.9002 51.4801C33.6691 51.4477 33.5041 51.2213 33.5371 50.9948C33.5701 50.8007 33.7351 50.6389 33.9332 50.6389C35.5836 50.5095 37.3001 50.3154 39.0166 50.0566C40.2709 49.8625 41.5253 49.6684 42.7796 49.4096C41.8883 49.1508 41.0301 48.892 40.1389 48.5685C38.9836 48.1803 37.8613 47.792 36.739 47.3715C36.1778 47.1774 35.5836 47.0803 34.9895 47.145C32.0847 47.4362 29.1469 47.5009 26.2421 47.3391C25.714 47.3068 25.1858 47.2744 24.6577 47.2097C17.1977 46.4656 12.1473 43.8775 10.8599 40.0601C10.6619 39.5101 10.5629 38.9278 10.5299 38.3131C10.3978 36.5015 10.959 34.528 12.1473 32.4899C12.5104 31.8429 12.9395 31.2282 13.3686 30.6459C14.0618 29.74 14.788 28.8666 15.5802 28.0254C16.0754 27.5078 16.5705 26.9902 17.1316 26.4726C22.7762 21.1993 31.6556 16.1202 42.0204 12.6586L43.1427 12.3027C41.1621 11.8822 39.1816 11.5263 37.2671 11.2675C36.6069 11.1704 35.9467 11.2675 35.3526 11.5263C26.9353 14.9232 19.9044 19.2259 14.9861 23.8198C14.4249 24.3374 13.8968 24.855 13.4016 25.3726C12.6094 26.2138 11.8502 27.0872 11.124 27.9931C10.6619 28.6078 10.1998 29.2224 9.80366 29.8371C8.8464 31.2929 8.1202 32.8458 7.62507 34.4957C7.42701 35.1427 7.29498 35.7897 7.19595 36.4691C7.16294 36.6956 6.96489 36.8573 6.70081 36.8573C6.56878 36.8573 6.46975 36.7603 6.37073 36.6632C5.97462 36.0485 5.57851 35.4339 5.24842 34.7868C2.9708 30.5488 2.9708 25.4697 5.24842 21.2317C5.57851 20.5846 5.97462 19.9376 6.37073 19.3553C6.50276 19.1612 6.76683 19.0965 6.96489 19.2259C7.06391 19.2906 7.12993 19.42 7.16294 19.5494C7.26197 20.2288 7.394 20.8758 7.59206 21.5228C8.08719 23.1727 8.8464 24.7256 9.77065 26.1814C10.4638 25.3079 11.256 24.4344 12.1473 23.561C10.992 21.5228 10.4308 19.5494 10.5299 17.7377C10.5629 17.1554 10.6949 16.5731 10.8599 15.9908C12.1803 12.1733 17.1977 9.58522 24.6577 8.84114C25.1858 8.77644 25.714 8.74409 26.2421 8.71174C27.2324 8.64704 28.2887 8.61468 29.3449 8.61468C31.5565 8.61468 33.7681 8.74409 35.9467 9.0029C37.4321 9.16466 38.9506 9.39111 40.502 9.64992C42.7466 10.0381 44.9912 10.5234 47.3018 11.1381C48.6882 11.4939 50.0746 11.9145 51.4939 12.3674C51.857 12.4968 52.2201 12.5939 52.5832 12.7233C62.9811 16.1525 71.8275 21.264 77.472 26.5373C78.2642 25.6961 78.9904 24.8227 79.6506 23.9168C74.5012 19.1288 67.1732 14.6967 58.3598 11.2351C56.9734 10.6852 55.554 10.1675 54.1017 9.68228L53.6725 9.52052C51.527 8.80879 49.3814 8.19412 47.2688 7.64415C45.7834 7.25593 44.298 6.93242 42.8126 6.64126C41.5252 6.38245 40.2709 6.18834 39.0496 5.99423C37.3331 5.73542 35.6166 5.54132 33.9662 5.41191C33.7351 5.41191 33.5371 5.18545 33.5701 4.959C33.5701 4.76489 33.7351 4.60313 33.9332 4.57078C35.6497 4.24727 37.3661 4.02081 39.1486 3.8267C44.5621 3.24438 50.0416 3.24438 55.455 3.8267C57.2045 4.02081 58.921 4.24727 60.6044 4.57078C60.8355 4.60313 61.0005 4.82959 60.9675 5.05605C60.9345 5.25016 60.7695 5.41191 60.5714 5.41191C58.921 5.54132 57.2375 5.73542 55.488 5.99423C54.2667 6.18834 53.0124 6.38245 51.758 6.64126C52.6493 6.90007 53.5075 7.19123 54.3987 7.48239C55.5541 7.87061 56.7094 8.25882 57.8317 8.71174C58.3928 8.90585 58.987 9.0029 59.6142 8.9382C61.6277 8.74409 63.5422 8.64704 65.3907 8.64704C66.414 8.64704 67.4043 8.67939 68.3615 8.74409C72.9168 9.0029 76.7458 9.94109 79.4855 11.4616C79.9807 11.7851 80.4758 12.1086 80.9709 12.4321C82.2253 13.338 83.1825 14.5997 83.7107 16.0555C83.9087 16.6054 84.0078 17.1878 84.0408 17.8024C84.1728 19.6141 83.6116 21.5875 82.4233 23.6257C82.0602 24.2727 81.6641 24.8874 81.202 25.4697C80.5088 26.3755 79.7826 27.249 78.9904 28.0901C78.4953 28.6077 77.9671 29.1254 77.439 29.643C71.7945 34.9162 62.915 39.9954 52.5502 43.4246C52.1871 43.554 51.824 43.6511 51.4609 43.7805C53.4415 44.201 55.422 44.5569 57.3695 44.7834C58.0297 44.8804 58.6899 44.7834 59.2841 44.5246C67.6683 41.1277 74.6662 36.825 79.6176 32.2311C80.1787 31.7135 80.7069 31.1958 81.202 30.6782C81.9942 29.8371 82.7534 28.9636 83.4796 28.0578C83.9417 27.4431 84.4039 26.8284 84.8 26.2138C85.7572 24.758 86.4834 23.2051 86.9786 21.5552C87.1766 20.9082 87.3086 20.2611 87.4077 19.5818C87.4407 19.3553 87.6717 19.1935 87.9028 19.2259C88.0348 19.2259 88.1339 19.3229 88.1999 19.42C88.596 20.0347 88.9921 20.6493 89.3222 21.2964C91.5998 25.5344 91.5998 30.5812 89.3222 34.8515C88.8601 35.4662 88.464 36.0809 88.0679 36.6956Z" fill="white"/>
<path d="M53.9694 28.0582C51.0976 29.611 48.721 31.908 47.1366 34.7549C45.5521 31.9403 43.2085 29.611 40.3037 28.0582C43.1755 26.5053 45.5521 24.2084 47.1366 21.3615C48.721 24.176 51.0976 26.5053 53.9694 28.0582Z" fill="white"/>
<path d="M109.425 44.6867H107.643V44.1367H111.802V44.6867H110.019V49.3453H109.425V44.6867Z" fill="white"/>
<path d="M114.673 46.7572C114.673 45.3014 115.894 44.1044 117.38 44.1044C118.865 44.1044 120.086 45.3014 120.086 46.7572C120.119 48.213 118.931 49.41 117.446 49.4423C117.413 49.4423 117.38 49.4423 117.38 49.4423C115.927 49.4747 114.706 48.3424 114.673 46.9189C114.673 46.8542 114.673 46.8219 114.673 46.7572ZM119.459 46.7572C119.492 45.6249 118.601 44.6543 117.446 44.622C117.413 44.622 117.413 44.622 117.38 44.622C116.224 44.622 115.3 45.5278 115.3 46.6601C115.3 46.6925 115.3 46.7248 115.3 46.7248C115.267 47.8571 116.158 48.8277 117.314 48.86C117.347 48.86 117.347 48.86 117.38 48.86C118.535 48.86 119.459 47.9542 119.459 46.8219C119.459 46.8219 119.459 46.7895 119.459 46.7572Z" fill="white"/>
<path d="M123.421 46.7572C123.355 45.3337 124.51 44.1368 125.962 44.072C125.995 44.072 126.028 44.072 126.061 44.072C126.788 44.0397 127.514 44.2985 128.042 44.7514L127.646 45.2043C127.217 44.8161 126.623 44.5897 126.028 44.622C124.873 44.622 124.015 45.5926 124.015 46.7572C124.015 47.9865 124.84 48.9247 126.094 48.9247C126.656 48.9247 127.184 48.7306 127.613 48.4071V47.1131H125.995V46.5954H128.174V48.6659C127.58 49.1835 126.821 49.4747 126.061 49.4747C124.642 49.5394 123.421 48.4395 123.388 47.016C123.388 46.919 123.388 46.8219 123.421 46.7572Z" fill="white"/>
<path d="M131.97 44.1367H135.799V44.6543H132.564V46.4337H135.469V46.9513H132.564V48.7629H135.832V49.2806H131.97V44.1367Z" fill="white"/>
<path d="M140.783 44.6867H139.001V44.1367H143.16V44.6867H141.378V49.3453H140.783V44.6867Z" fill="white"/>
<path d="M146.56 44.1367H147.154V46.4337H150.224V44.1367H150.818V49.3129H150.224V46.9836H147.154V49.3129H146.56V44.1367Z" fill="white"/>
<path d="M154.68 44.1367H158.509V44.6543H155.274V46.4337H158.179V46.9513H155.274V48.7629H158.542V49.2806H154.68V44.1367Z" fill="white"/>
<path d="M162.008 44.1368H164.285C164.847 44.1044 165.375 44.2985 165.804 44.6544C166.068 44.9132 166.233 45.3014 166.2 45.6897C166.2 46.5631 165.606 47.0484 164.748 47.2102L166.365 49.3453H165.639L164.12 47.3396H162.602V49.3453H162.008V44.1368ZM164.219 46.7896C165.012 46.7896 165.573 46.4014 165.573 45.722C165.573 45.075 165.078 44.6868 164.219 44.6868H162.569V46.7896H164.219Z" fill="white"/>
<path d="M173.891 44.1367H177.687V44.6543H174.485V46.4984H177.357V47.016H174.485V49.2806H173.891V44.1367Z" fill="white"/>
<path d="M180.823 46.7572C180.823 45.3014 182.044 44.1044 183.53 44.1044C185.015 44.1044 186.237 45.3014 186.237 46.7572C186.27 48.213 185.081 49.41 183.596 49.4423C183.563 49.4423 183.53 49.4423 183.497 49.4423C182.044 49.4747 180.823 48.3424 180.79 46.9189C180.823 46.8542 180.823 46.8219 180.823 46.7572ZM185.609 46.7572C185.642 45.6249 184.751 44.6543 183.596 44.622C183.563 44.622 183.563 44.622 183.53 44.622C182.374 44.622 181.45 45.5278 181.45 46.6601C181.45 46.6925 181.45 46.7248 181.45 46.7572C181.417 47.8895 182.308 48.86 183.464 48.8924C183.497 48.8924 183.497 48.8924 183.53 48.8924C184.685 48.8924 185.609 47.9542 185.609 46.8542C185.609 46.8219 185.609 46.7895 185.609 46.7572Z" fill="white"/>
<path d="M189.834 44.1368H192.112C192.673 44.1044 193.201 44.2985 193.63 44.6544C193.894 44.9132 194.059 45.3014 194.026 45.6897C194.026 46.5631 193.432 47.0484 192.607 47.2102L194.224 49.3453H193.498L191.947 47.3396H190.428V49.3453H189.834V44.1368ZM192.046 46.7896C192.838 46.7896 193.399 46.4014 193.399 45.722C193.399 45.075 192.904 44.6868 192.046 44.6868H190.395V46.7896H192.046Z" fill="white"/>
<path d="M201.354 48.6012L201.718 48.1806C202.213 48.6659 202.84 48.9247 203.533 48.9247C204.259 48.9247 204.721 48.5688 204.721 48.0512V48.0189C204.721 47.5336 204.457 47.2748 203.335 47.016C202.114 46.7572 201.553 46.369 201.553 45.5278C201.553 44.719 202.279 44.1044 203.302 44.1044C203.995 44.1044 204.655 44.3308 205.151 44.7514L204.82 45.2043C204.391 44.8485 203.863 44.6543 203.302 44.6543C202.609 44.6543 202.18 45.0102 202.18 45.4955C202.18 45.9807 202.444 46.2719 203.632 46.4984C204.82 46.7248 205.349 47.1777 205.349 47.9542C205.349 48.86 204.589 49.41 203.533 49.41C202.708 49.41 201.949 49.1188 201.354 48.6012Z" fill="white"/>
<path d="M208.781 47.1777V44.1691H209.375V47.1454C209.375 48.2777 209.97 48.8924 210.993 48.8924C212.016 48.8924 212.577 48.31 212.577 47.1777V44.1691H213.171V47.1454C213.171 48.6659 212.28 49.4423 210.96 49.4423C209.639 49.4423 208.781 48.6335 208.781 47.1777Z" fill="white"/>
<path d="M216.704 46.7572C216.671 45.3014 217.826 44.1044 219.312 44.072C219.345 44.072 219.378 44.072 219.378 44.072C220.17 44.0397 220.896 44.3632 221.457 44.8808L221.061 45.3014C220.632 44.8485 220.038 44.5897 219.411 44.5897C218.255 44.5897 217.331 45.5279 217.364 46.6601C217.364 46.6925 217.364 46.6925 217.364 46.7248C217.298 47.8571 218.189 48.8277 219.345 48.86C219.378 48.86 219.378 48.86 219.411 48.86C220.071 48.86 220.698 48.6012 221.127 48.116L221.523 48.5042C220.995 49.0865 220.203 49.4424 219.411 49.41C217.958 49.41 216.77 48.2777 216.737 46.8542C216.704 46.8219 216.704 46.7895 216.704 46.7572Z" fill="white"/>
<path d="M224.494 46.7572C224.461 45.3014 225.616 44.1044 227.102 44.072C227.135 44.072 227.135 44.072 227.168 44.072C227.96 44.0397 228.686 44.3308 229.247 44.8808L228.851 45.3014C228.422 44.8484 227.828 44.5896 227.201 44.5896C226.045 44.5896 225.121 45.5278 225.154 46.6601C225.154 46.6925 225.154 46.6925 225.154 46.7248C225.088 47.8571 225.979 48.8276 227.135 48.86C227.168 48.86 227.168 48.86 227.201 48.86C227.861 48.86 228.488 48.6012 228.917 48.1159L229.313 48.5041C228.785 49.0865 227.993 49.4423 227.201 49.41C225.748 49.4423 224.56 48.2777 224.527 46.8542C224.494 46.8542 224.494 46.7895 224.494 46.7572Z" fill="white"/>
<path d="M232.647 44.1367H236.477V44.6543H233.242V46.4337H236.146V46.9513H233.242V48.7629H236.51V49.2806H232.647V44.1367Z" fill="white"/>
<path d="M239.678 48.6012L240.041 48.1806C240.536 48.6659 241.163 48.9247 241.856 48.9247C242.583 48.9247 243.045 48.5688 243.045 48.0512V48.0189C243.045 47.5336 242.781 47.2748 241.658 47.016C240.437 46.7572 239.876 46.369 239.876 45.5278C239.876 44.719 240.602 44.1044 241.625 44.1044C242.318 44.1044 242.979 44.3308 243.474 44.7514L243.111 45.2043C242.682 44.8485 242.153 44.6543 241.592 44.6543C240.899 44.6543 240.47 45.0102 240.47 45.4955C240.47 45.9807 240.734 46.2719 241.889 46.4984C243.045 46.7248 243.606 47.1777 243.606 47.9542C243.606 48.86 242.847 49.41 241.79 49.41C241.031 49.41 240.272 49.1188 239.678 48.6012Z" fill="white"/>
<path d="M246.841 48.6012L247.204 48.1806C247.699 48.6659 248.326 48.9247 249.019 48.9247C249.746 48.9247 250.208 48.5688 250.208 48.0512V48.0189C250.208 47.5336 249.944 47.2748 248.821 47.016C247.6 46.7572 247.039 46.369 247.039 45.5278C247.039 44.719 247.765 44.1044 248.788 44.1044C249.482 44.1044 250.142 44.3308 250.637 44.7514L250.307 45.2043C249.878 44.8485 249.35 44.6543 248.788 44.6543C248.095 44.6543 247.666 45.0102 247.666 45.4955C247.666 45.9807 247.93 46.2719 249.085 46.4984C250.241 46.7248 250.802 47.1777 250.802 47.9542C250.802 48.86 250.043 49.41 248.986 49.41C248.227 49.4423 247.435 49.1188 246.841 48.6012Z" fill="white"/>
<path d="M131.607 29.4816H143.721V26.4083H131.607V21.3615H144.711V19.2263C144.711 18.6763 144.282 18.2557 143.721 18.2557H129.164C128.603 18.2557 128.174 18.6763 128.174 19.2263V36.4048C128.174 36.9548 128.603 37.3753 129.164 37.3753H143.919C144.48 37.3753 144.909 36.9548 144.909 36.4048V34.2696H131.607V29.4816Z" fill="white"/>
<path d="M174.849 18.2557H172.868L162.965 32.7814L152.964 18.2557H150.983C150.422 18.2557 149.96 18.7087 149.96 19.2586V36.3401C149.96 36.8901 150.422 37.343 150.983 37.343H153.228V24.3378L161.117 35.7578C161.81 36.7606 163.164 37.0195 164.187 36.3401C164.418 36.1783 164.616 35.9842 164.781 35.7578L172.637 24.4025V37.3753H174.849C175.41 37.3753 175.872 36.9224 175.872 36.3724V19.2586C175.872 18.7087 175.41 18.2557 174.849 18.2557Z" fill="white"/>
<path d="M237.698 34.2696V29.4816H249.812V26.4083H237.698V21.3615H250.802V19.2263C250.802 18.6763 250.373 18.2557 249.812 18.2557H235.255C234.694 18.2557 234.265 18.6763 234.265 19.2263V36.4048C234.265 36.9548 234.694 37.3753 235.255 37.3753H250.01C250.571 37.3753 251 36.9548 251 36.4048V34.2696H237.698Z" fill="white"/>
<path d="M228.587 23.4643C228.224 20.4879 225.616 18.2234 222.546 18.2557H211.29C210.729 18.2557 210.3 18.6763 210.3 19.2263V36.4048C210.3 36.9547 210.729 37.3753 211.29 37.3753H213.568V29.8698H220.004H220.83H221.16L226.87 37.3753H230.996L224.791 29.4816C227.299 28.5434 228.851 26.0847 228.587 23.4643ZM225.418 24.0466C225.418 25.5024 224.197 26.6994 222.711 26.6994H213.568V21.3938H222.678C224.197 21.3938 225.418 22.5908 225.418 24.0466Z" fill="white"/>
<path d="M114.211 19.2263V21.3291H118.832V31.0021C118.832 31.5197 118.733 32.005 118.535 32.4903C118.337 32.9109 118.04 33.2667 117.677 33.5579C117.28 33.8814 116.851 34.1078 116.356 34.2373C115.795 34.399 115.234 34.4961 114.64 34.4961C113.88 34.4961 113.22 34.4637 112.659 34.399C112.131 34.3667 111.636 34.2696 111.108 34.1725C110.679 34.0755 110.283 33.9784 109.886 33.849C109.523 33.7196 109.16 33.5902 108.797 33.4608L107.675 33.0403V35.8548C107.675 36.2107 107.906 36.5342 108.269 36.6312L109.391 36.9224C109.787 37.0195 110.249 37.1165 110.712 37.2136C111.174 37.3106 111.735 37.3753 112.296 37.44C112.857 37.5047 113.484 37.5371 114.178 37.5371C115.234 37.5371 116.257 37.4077 117.28 37.1489C118.205 36.8901 119.063 36.4695 119.789 35.9195C120.515 35.3695 121.076 34.6255 121.473 33.8167C121.869 32.9109 122.1 31.9403 122.067 30.9374V19.2263C122.067 18.6763 121.638 18.2557 121.076 18.2557H115.201C114.64 18.2557 114.211 18.6763 114.211 19.2263Z" fill="white"/>
<path d="M193.102 17.9323C186.237 17.9323 180.625 22.3644 180.625 27.7994C180.625 33.2344 186.204 37.6665 193.102 37.6665C200.001 37.6665 205.58 33.2344 205.58 27.7994C205.58 22.3644 199.968 17.9323 193.102 17.9323ZM199.902 32.3609C195.875 35.2725 190.363 35.2725 186.303 32.3609C184.718 31.0992 183.827 29.4816 183.827 27.7994C183.827 26.1171 184.718 24.4996 186.303 23.2379C190.33 20.3262 195.842 20.3262 199.902 23.2379C201.487 24.4996 202.378 26.1171 202.378 27.7994C202.378 29.4816 201.487 31.0992 199.902 32.3609Z" fill="white"/>
</g>
<defs>
<clipPath id="clip0_83_4216">
<rect width="251" height="56" fill="white" transform="translate(0 0.0419922)"/>
</clipPath>
</defs>
</svg>
