<svg width="249" height="107" viewBox="0 0 249 107" fill="none" xmlns="http://www.w3.org/2000/svg">
<g clip-path="url(#clip0_83_4244)">
<g opacity="0.5">
<path d="M141.685 48.8446L92.5566 0.162476H105.253L148.034 42.5384L141.685 48.8446Z" fill="#FCFCFC"/>
</g>
<path d="M116.333 48.8445L88.6348 21.3303H101.291L122.681 42.5384L116.333 48.8445Z" fill="#FCFCFC"/>
<g opacity="0.5">
<path d="M122.681 42.4982L80.2642 84.6733L67.6484 84.5528L116.332 36.192L122.681 42.4982Z" fill="#FCFCFC"/>
</g>
<path d="M148.033 42.4982L84.0648 106.042H71.3682L141.685 36.192L148.033 42.4982Z" fill="#FCFCFC"/>
<path d="M46.1777 72.0208H58.5509V74.7119H49.3721V81.9419H61.1792V84.5528H46.1777" fill="#FCFCFC"/>
<path d="M46.1777 63.0234H60.6131V65.6343H46.1777" fill="#FCFCFC"/>
<path d="M154.463 65.6343H147.75V84.5528H144.556V65.6343H137.844V63.0234H154.463V65.6343Z" fill="#FCFCFC"/>
<path d="M202.985 73.788C202.985 80.054 198.052 84.8741 191.946 84.8741C185.881 84.8741 180.907 80.0942 180.907 73.788C180.907 67.522 185.84 62.7422 191.946 62.7422C198.052 62.7422 202.985 67.522 202.985 73.788ZM184.142 73.788C184.142 78.2064 187.377 82.223 191.946 82.223C196.556 82.223 199.75 78.2064 199.75 73.788C199.75 69.4099 196.515 65.3932 191.946 65.3932C187.377 65.3932 184.142 69.4099 184.142 73.788Z" fill="#FCFCFC"/>
<path d="M240.792 78.8893H235.576V84.593H232.341V63.0234H240.792C245.037 63.0636 248.434 66.5983 248.434 70.9765C248.434 75.3145 244.997 78.8491 240.792 78.8893ZM245.199 70.9363C245.199 68.0443 243.218 65.6343 240.711 65.6343H235.576V76.1981H240.711C243.218 76.2383 245.199 73.8283 245.199 70.9363Z" fill="#FCFCFC"/>
<path d="M15.9722 63.0234V77.7646C15.9722 81.2591 14.274 84.8741 8.93651 84.8741C3.59907 84.8741 1.86035 81.2591 1.86035 77.7646H5.05473C5.05473 79.05 5.17604 82.2231 8.93651 82.2231C12.697 82.2231 12.7374 79.05 12.7374 77.7646V63.0234H15.9722Z" fill="#FCFCFC"/>
</g>
<defs>
<clipPath id="clip0_83_4244">
<rect width="249" height="106" fill="white" transform="translate(0 0.0419922)"/>
</clipPath>
</defs>
</svg>
