<svg xmlns="http://www.w3.org/2000/svg" viewBox="0 0 231.58 208.25"><defs><style>.cls-1{fill:#fff;}</style></defs><g id="Livello_2" data-name="Livello 2"><g id="Layer_1" data-name="Layer 1"><path class="cls-1" d="M6.64,13.62h.17V56H16V.68H8.68L0,10.73v9.7H.17Zm15-1.53v6.64h8.51v-7c0-3.41,1.7-4.26,3.57-4.26s3.41.68,3.41,4.09v4.6c0,4.59-.34,6.3-3.41,9.53l-5.27,5.62c-5.11,5.45-7,9-7,14.47V56H45.63V48.36H30.31V45.8c0-4.25,1.53-6,3.92-8.51l6-6.3C45,25.88,46,22.65,46,17V11.58C46,3.75,42.23,0,33.89,0,25.71,0,21.63,4.43,21.63,12.09m171,112.38c-11.24-8.85-24.52-9.7-29.8-9.7a29.19,29.19,0,0,0-7.15.68l-.68.17c-7.15,1.7-18.9,4.42-32.69,21.62l-.34.51a2.41,2.41,0,0,0-.34,1,1.27,1.27,0,0,0,.17.85l.34.51c2.21,3.74,4.08,7.15,5.62,9.87a1.74,1.74,0,0,0,2.89.34c.17-.17.17-.34.34-.34,11.92-16.51,21.29-18.73,27.42-20.09l.68-.17a20.05,20.05,0,0,1,3.74-.34c2.9,0,12.77.51,20.61,6.64,7,5.45,10.38,14.13,10.38,25.88,0,19.75-9.53,27.42-17.53,30.31a26.55,26.55,0,0,1-9.71,1.7c-8.17,0-14.64-3.23-14.64-3.4l-.51-.34c-6.82-3.07-17.2-9.2-26.91-28.78-19.92-40-36.61-43.76-47.68-46.31l-.51-.17a33.73,33.73,0,0,0-7.15-.68c-6.47,0-18.73,1.19-29.29,9.7C32.69,129.75,24,141,24,161.42c0,12.6,2.55,20.78,9.19,29.46,1.2,1.7,12.77,16.52,34.91,16.52a51,51,0,0,0,10-1,43.64,43.64,0,0,0,17.19-7.83l5.79,5.28a1.83,1.83,0,0,0,2.39-.17c.34-.34.51-.68.34-1l4.43-27.76v-.34a1.52,1.52,0,0,0-.52-1.19,1.54,1.54,0,0,0-1.19-.51l-27.07,7.49H79a.93.93,0,0,0-.85.51,1.84,1.84,0,0,0-.51,1.2,1.54,1.54,0,0,0,.51,1.19l5.62,5.11a24.81,24.81,0,0,1-8.69,3.57,34,34,0,0,1-7.15.68c-15.32,0-22.82-10-23.16-10.55l-.17-.18c-4.6-6.12-6.3-11.4-6.3-20.6,0-11.75,3.41-20.6,10.22-26.05,7.66-6.13,17.37-6.47,20.09-6.47a20.17,20.17,0,0,1,3.75.34l.68.17c8.85,2,20.94,4.77,37.8,38.48,8.85,17.88,19.92,29.46,33.88,35.59a49.94,49.94,0,0,0,21.46,4.94,40.77,40.77,0,0,0,15-2.73c8.18-3.06,27.08-13.45,27.08-44.27.51-19.75-8.35-31-15.67-36.78Z"/><path class="cls-1" d="M70.49,12.77V23H66.75V.68H72.2c3.74,0,5.11,1.87,5.11,4.94V8.51c0,2.39-.86,3.75-3.07,4.26L77.82,23H73.9L70.49,12.77Zm0-9v7h1.2c1.36,0,1.87-.68,1.87-1.88V5.62a1.63,1.63,0,0,0-1.87-1.87ZM79.86.68h9V3.75H83.61v6.47h3.74v3.06H83.61v6.81h5.27v3.07h-9V.68ZM90.93,18.22V15.15H94.5v3.07c0,1.19.51,2,1.88,2,1.19,0,1.7-.85,1.7-2v-.85c0-1.36-.51-2.05-1.7-3.24l-2.22-2.21C92,9.88,91.1,8.51,91.1,6V5.28c0-2.73,1.7-4.94,5.28-4.94,3.74,0,5.27,1.87,5.27,5.11V7.32h-3.4V5.45c0-1.36-.51-1.87-1.7-1.87-1,0-1.71.51-1.71,1.87V6c0,1.19.68,2,1.71,3.06l2.38,2.39c2,2,3.07,3.4,3.07,5.79v1c0,3.06-1.71,5.28-5.45,5.28-4.09-.17-5.62-2.39-5.62-5.28ZM104,.68h5.62c3.74,0,5.11,1.87,5.11,4.94v4.77c0,3.06-1.37,5.11-5.11,5.11h-1.87v7.66H104V.68Zm3.74,3.07V12.6h1.37A1.63,1.63,0,0,0,111,10.73V5.62a1.63,1.63,0,0,0-1.87-1.87Zm9.37,13.45V6.3c0-3.58,1.7-6,5.62-6s5.79,2.55,5.79,6V17.2c0,3.4-1.7,6-5.79,6C118.85,23.33,117.15,20.6,117.15,17.2Zm7.66.68V5.79c0-1.36-.51-2.38-1.87-2.38s-1.87,1-1.87,2.38V17.88c0,1.36.51,2.38,1.87,2.38A2.14,2.14,0,0,0,124.81,17.88Zm9.37-9V23h-3.24V.68h3.75l4.09,12.77V.68h3.06V23H138.6Zm10.21,9.37V15.15H148v3.07c0,1.19.51,2,1.87,2,1.19,0,1.71-.85,1.71-2v-.85c0-1.36-.52-2.05-1.71-3.24l-2.21-2.21c-2.21-2-3.07-3.41-3.07-6V5.28c0-2.73,1.71-4.94,5.28-4.94,3.75,0,5.28,1.87,5.28,5.11V7.32h-3.4V5.45c0-1.36-.52-1.87-1.71-1.87-1,0-1.7.51-1.7,1.87V6c0,1.19.68,2,1.7,3.06l2.39,2.39c2,2,3.06,3.4,3.06,5.79v1c0,3.06-1.7,5.28-5.45,5.28-4.25-.17-5.62-2.39-5.62-5.28Zm13-17.54h3.74V23h-3.74Zm6.3,0h5.44c3.75,0,4.94,1.7,4.94,4.94V7.83c0,1.88-.68,3.07-2.21,3.58a3.41,3.41,0,0,1,2.72,3.74v2.9c0,3.23-1.36,4.94-5.11,4.94h-5.78V.68Zm3.91,9.37h1.36c1.2,0,1.71-.68,1.71-1.88V5.45c0-1.19-.51-1.87-1.88-1.87h-1.36l.17,6.47Zm0,2.89v7h1.7a1.7,1.7,0,0,0,1.88-1.87V14.64c0-1.19-.51-1.87-1.88-1.87h-1.7ZM176.92.68h3.74V19.92h4.43V23h-8.17V.68Zm10.38,0h9V3.75h-5.28v6.47h3.75v3.06h-3.75v6.81h5.28v3.07h-9V.68Z"/><path class="cls-1" d="M66.75,50.06V39.16c0-3.57,1.7-6,5.62-6,4.08,0,5.28,2.39,5.28,5.62v2.73H74.24v-2.9c0-1.36-.51-2.21-1.87-2.21s-1.88,1-1.88,2.38V50.91c0,1.36.52,2.39,1.88,2.39s1.87-.85,1.87-2.22V47h3.41v3.91c0,3.24-1.37,5.62-5.28,5.62C68.45,56.19,66.75,53.64,66.75,50.06Zm13.28,0V39.16c0-3.57,1.7-6,5.62-6s5.79,2.56,5.79,6v10.9c0,3.41-1.7,6-5.79,6C81.73,56.19,80,53.64,80,50.06Zm7.66.68V38.65c0-1.36-.51-2.38-1.87-2.38S84,37.29,84,38.65V50.74c0,1.36.51,2.39,1.87,2.39C87.18,53,87.69,52.1,87.69,50.74Zm9.37-8.85V56H93.82V33.71h3.75l4.08,12.78V33.71h3.07V56h-3.24Zm10,9.19V48h3.58v3.06c0,1.19.51,2.05,1.87,2.05,1.19,0,1.71-.86,1.71-2.05v-.85c0-1.36-.52-2-1.71-3.23l-2.21-2.22c-2.21-2-3.07-3.4-3.07-6v-.68c0-2.72,1.71-4.94,5.28-4.94,3.75,0,5.28,1.88,5.28,5.11v1.88h-3.4V38.31c0-1.36-.52-1.87-1.71-1.87-1,0-1.7.51-1.7,1.87v.51c0,1.2.68,2,1.7,3.07l2.39,2.38c2,2,3.06,3.41,3.06,5.79v1c0,3.07-1.7,5.28-5.45,5.28-4.08-.17-5.62-2.38-5.62-5.28Zm24-17.54V50.4c0,3.41-1.53,5.79-5.28,5.79-3.91,0-5.62-2.21-5.62-5.79V33.54H124V50.91c0,1.36.51,2.22,1.87,2.22s1.88-.86,1.88-2.22V33.54Zm12.94,7.84-2.72,14.47h-1.7L136.9,41.38V55.85h-3.06V33.54h4.42l2.39,12.6,2.21-12.6h4.77V55.85h-3.41V41.38Zm6-7.84h5.62c3.75,0,5.11,1.88,5.11,4.94v4.77c0,3.07-1.36,5.11-5.11,5.11h-1.87V56H150V33.54Zm3.75,3.07v8.85h1.36A1.63,1.63,0,0,0,157,43.59V38.48a1.63,1.63,0,0,0-1.87-1.87Zm8.17-3.07h10v3.07h-3.07V55.85h-3.74V36.61H162.1Zm11.75,0h3.75V55.85h-3.75Zm6,16.52V39.16c0-3.57,1.7-6,5.62-6s5.79,2.56,5.79,6v10.9c0,3.41-1.7,6-5.79,6C181.34,56.19,179.64,53.64,179.64,50.06Zm7.66.68V38.65c0-1.36-.51-2.38-1.87-2.38s-1.87,1-1.87,2.38V50.74c0,1.36.51,2.39,1.87,2.39A2.15,2.15,0,0,0,187.3,50.74Zm9.2-8.85V56h-3.24V33.71H197l4.09,12.78V33.71h3.06V56h-3.23Z"/><path class="cls-1" d="M66.24,88.71l4.25-22.3h4.26L79,88.71H75.09l-.68-4.08H70.49l-.68,4.08Zm4.59-7H73.9l-1.53-9Zm13-7V88.88H80.54V66.58h3.75l4.08,12.77V66.58h3.07v22.3H88.2Zm21.28-2.38V82.75c0,3.41-1.36,6-5.45,6H93.82V66.41h5.79C103.53,66.41,105.06,69,105.06,72.37Zm-6,13.28a2,2,0,0,0,2.21-2.21V71.69c0-1.37-.51-2.22-2.21-2.22H97.57V85.65Zm11.75-19.24h5.62c3.75,0,5.11,1.87,5.11,4.94v4.76c0,3.07-1.36,5.11-5.11,5.11H114.6v7.66h-3.75V66.41Zm3.75,3.06v8.86H116c1.36,0,1.87-.68,1.87-1.88v-5.1c0-1.2-.51-1.88-1.87-1.88Zm12.77,9V88.71h-3.75V66.41h5.45c3.75,0,5.11,1.87,5.11,4.94v2.89c0,2.38-.85,3.75-3.07,4.26l3.58,10.21h-3.92l-3.4-10.21Zm0-9v7h1.19a1.63,1.63,0,0,0,1.87-1.87V71.35c0-1.2-.51-1.88-1.87-1.88Zm9,13.45V72c0-3.58,1.7-6,5.62-6s5.79,2.55,5.79,6V82.92c0,3.41-1.7,6-5.79,6C138.09,89.05,136.39,86.5,136.39,82.92Zm7.66.69V71.52c0-1.37-.51-2.39-1.87-2.39s-1.87,1-1.87,2.39V83.61c0,1.36.51,2.38,1.87,2.38C143.54,85.82,144.05,85,144.05,83.61Zm17.37-11.24V82.75c0,3.41-1.36,6-5.45,6h-5.79V66.41H156C159.89,66.41,161.42,69,161.42,72.37Zm-6,13.28a2,2,0,0,0,2.22-2.21V71.69c0-1.37-.52-2.22-2.22-2.22h-1.53V85.65Zm19.07-19.24V83.27c0,3.4-1.53,5.78-5.28,5.78-3.91,0-5.61-2.21-5.61-5.78V66.41h3.74V83.78c0,1.36.51,2.21,1.87,2.21s1.88-.85,1.88-2.21V66.41Zm2.22,16.51V72c0-3.58,1.7-6,5.62-6,4.08,0,5.27,2.38,5.27,5.62v2.72h-3.4V71.52c0-1.37-.51-2.22-1.87-2.22s-1.88,1-1.88,2.39V83.78c0,1.36.51,2.38,1.88,2.38s1.87-.85,1.87-2.21V79.86h3.4v3.92c0,3.23-1.36,5.62-5.27,5.62C178.45,89.05,176.75,86.5,176.75,82.92Zm12.77-16.51h10v3.06H196.5V88.71h-3.75V69.47h-3.06Zm11.75,0H205v22.3h-3.74Zm6,16.51V72c0-3.58,1.7-6,5.62-6s5.78,2.55,5.78,6V82.92c0,3.41-1.7,6-5.78,6C208.93,89.05,207.23,86.5,207.23,82.92Zm7.66.69V71.52c0-1.37-.51-2.39-1.87-2.39s-1.88,1-1.88,2.39V83.61c0,1.36.51,2.38,1.88,2.38A2.14,2.14,0,0,0,214.89,83.61Zm9-8.86V88.88h-3.23V66.58h3.74l4.09,12.77V66.58h3.07v22.3h-3.24Z"/></g></g></svg>