<svg xmlns="http://www.w3.org/2000/svg" viewBox="0 0 183.22 216.42"><defs><style>.cls-1{fill:#fff;}</style></defs><g id="Livello_2" data-name="Livello 2"><g id="Layer_1" data-name="Layer 1"><path class="cls-1" d="M24,48.19H8.85V45.63c0-4.25,1.54-6,3.92-8.51l6-6.3c4.77-5.11,5.79-8.34,5.79-14V11.58C24.52,3.75,20.77,0,12.43,0,4.26,0,.17,4.26.17,12.09v6.64H8.68v-7c0-3.41,1.71-4.26,3.58-4.26s3.41.68,3.41,4.09v4.6c0,4.59-.35,6.3-3.41,9.53L7,31.33c-5.11,5.45-7,9-7,14.47V56H24.18L24,48.19Z"/><path class="cls-1" d="M86,210.46v4.26a1.7,1.7,0,0,0,1.7,1.7h45.13a1.75,1.75,0,0,0,1.7-1.87v-4.43c25.37-8.34,44.44-29,48.7-54.15v-.34a1.89,1.89,0,0,0-1.88-1.87h-144a1.89,1.89,0,0,0-1.87,1.87l.17.85c4.94,25.2,24.52,46,50.4,54M134.86,92.12c-.51.85-14.47,20.94.34,37.12,6.81,7.49,6.13,14,4.26,18.39H149c1.87-6.47,1.19-14.81-6.64-23.16-10.9-11.92.17-28.09.34-28.26a3.43,3.43,0,0,0-1.53-5.28,4.92,4.92,0,0,0-6.3,1.19m-24,55.51h9.54c1.87-6.47,1.19-14.81-6.65-23.16-10.89-11.92.17-28.09.35-28.26a3.43,3.43,0,0,0-1.54-5.28,5.17,5.17,0,0,0-6.3,1.36c-.68.85-14.47,20.94.34,37.12,6.81,7.32,6.13,13.79,4.26,18.22M77.48,92.12c-.69.85-14.48,20.94.34,37.12,6.81,7.49,6.13,14,4.25,18.39h9.54c1.87-6.47,1.19-14.81-6.64-23.16-10.9-11.92.17-28.09.34-28.26a3.43,3.43,0,0,0-1.53-5.28,5,5,0,0,0-6.3,1.19"/><path class="cls-1" d="M54.83,19.92h5.79V23H50.91V19.92l6-16.17H51.59V.68H61V3.75ZM63,.51h9V3.58H66.75v6.47h3.74v3.06H66.75v6.81H72V23H63V.51ZM78.16,12.6V22.82H74.41V.51h5.45C83.61.51,85,2.38,85,5.45V8.34c0,2.39-.85,3.75-3.07,4.26l3.58,10.22H81.56L78.16,12.6Zm0-9v7h1.19c1.36,0,1.87-.68,1.87-1.88V5.45a1.63,1.63,0,0,0-1.87-1.87ZM87.35,17.2V6.3c0-3.58,1.7-6,5.62-6s5.79,2.55,5.79,6V17.2c0,3.4-1.7,6-5.79,6C89.05,23.16,87.35,20.6,87.35,17.2Zm7.66.51V5.62c0-1.36-.51-2.38-1.87-2.38s-1.87,1-1.87,2.38V17.71c0,1.36.51,2.38,1.87,2.38S95,19.07,95,17.71Z"/><path class="cls-1" d="M58.4,45.8H54.83v9.88H51.08V33.37h3.75v9.54H58.4V33.37h3.75V55.68H58.4ZM75.6,33.37V50.23c0,3.41-1.53,5.79-5.28,5.79-3.91,0-5.61-2.21-5.61-5.79V33.37h3.74V50.74c0,1.36.51,2.22,1.87,2.22s1.88-.86,1.88-2.22V33.37Zm5.62,8.35V55.85H78.16V33.54H81.9L86,46.32V33.54h3.06V55.85H85.82Zm16,2h5.28V55.68H99.78V53.3A3.37,3.37,0,0,1,96.21,56c-3.24,0-4.77-2.55-4.77-6V39.16c0-3.57,1.7-6,5.62-6,4.08,0,5.45,2.39,5.45,5.62v2H99.1V38.65c0-1.36-.51-2.21-1.87-2.21s-1.88,1-1.88,2.38V50.91c0,1.36.52,2.39,1.88,2.39,1.19,0,1.87-.68,1.87-2.22V47.17H97.4V43.76Zm7.83-10.39h9v3.07h-5.28v6.47h3.74V46h-3.74v6.82h5.28v3.06h-9V33.37Zm15,12.09V55.68H116.3V33.37h5.45c3.74,0,5.11,1.88,5.11,4.94v2.9c0,2.38-.86,3.74-3.07,4.25l3.58,10.22h-3.92L120,45.46Zm0-9v7h1.2a1.63,1.63,0,0,0,1.87-1.87V38.31a1.63,1.63,0,0,0-1.87-1.87Z"/></g></g></svg>