<svg xmlns="http://www.w3.org/2000/svg" viewBox="0 0 241.79 220.51"><defs><style>.cls-1{fill:#fff;}</style></defs><g id="Livello_2" data-name="Livello 2"><g id="Layer_1" data-name="Layer 1"><path class="cls-1" d="M27.07,14.81C27.07,6.3,23.33,0,13.62,0,3.75,0,0,5.45,0,14v8.18c0,9,3.58,13.62,10.22,13.62a8.11,8.11,0,0,0,7.66-4.43V43.25c0,3.41-1.36,5.62-4.6,5.62-3.4,0-4.6-1.87-4.6-5.45V39.67H.17v2.9c0,8.17,2.89,13.79,13.28,13.79,9.71,0,13.62-6.3,13.62-15V14.81Zm-9.19,8.52c-.17,3.06-1.53,5.11-4.43,5.11C10.22,28.44,9,26.56,9,22.82V13.28c0-3.57,1.37-5.62,4.43-5.62s4.26,2.05,4.26,5.62v10ZM182.37,158.19l-32.53-18.73V101.83a1.84,1.84,0,0,0-1.19-1.88L114.94,80.54a2.54,2.54,0,0,0-2.22,0L79,100a2.31,2.31,0,0,0-1.19,1.88v37.63L45.29,158.19a2.31,2.31,0,0,0-1.19,1.87v38.82a1.85,1.85,0,0,0,1.19,1.88L79,220.17a2.46,2.46,0,0,0,1.19.34,3.15,3.15,0,0,0,1.19-.34l32.52-18.73,32.53,18.73a2.25,2.25,0,0,0,2.38,0l33.72-19.41a2.32,2.32,0,0,0,1.19-1.88V160.06a3.19,3.19,0,0,0-1.36-1.87Zm-70.84,36.95L84.46,179.47l27.07-15.66v31.33ZM143,140.65,116,156.31V125.15L143,140.65Zm-31.5,15.49L84.46,140.48l27.07-15.67v31.33Zm6.81,3.92,29.29-16.86,29.29,16.86-29.29,16.86Zm26.91-23.33-27.08-15.66,27.08-15.67Zm-35.93-15.49L82.24,136.9V105.74l27.08,15.5ZM78,214.55,48.7,197.69V164L78,180.83Zm4.42,0V183.39l27.08,15.66-27.08,15.5ZM179,197.69l-29.29,16.86V180.83L179,164Z"/><path class="cls-1" d="M41.55,1.36h3.57V22.14H41.55Zm8.51,7.83V22.31H47.17V1.53h3.4l3.75,11.92V1.53h2.89V22.31H54.15L50.06,9.19ZM69.81,7v9.71c0,3.23-1.36,5.62-5.11,5.62H59.26V1.53H64.7C68.62,1.36,69.81,3.75,69.81,7ZM64.36,19.41a1.88,1.88,0,0,0,2-2V6.47a1.8,1.8,0,0,0-2-2H62.83V19.58l1.53-.17Zm17.88-18V17c0,3.23-1.36,5.28-4.93,5.28-3.75,0-5.28-2-5.28-5.28V1.36H75.6v16c0,1.19.51,2,1.71,2s1.7-.85,1.7-2v-16Zm1.88,16.35V15h3.23v2.9c0,1.19.51,1.87,1.7,1.87,1,0,1.54-.68,1.54-1.87V17c0-1.19-.51-1.88-1.54-2.9l-2-2c-2-2-2.89-3.24-2.89-5.62V5.79c0-2.55,1.53-4.6,4.93-4.6C92.63,1.19,94,2.89,94,6v1.7H90.76V5.79c0-1.19-.51-1.7-1.71-1.7a1.52,1.52,0,0,0-1.7,1.7V6.3c0,1.19.68,1.87,1.7,2.89l2.22,2.22c1.87,1.87,2.89,3.06,2.89,5.45v1c0,2.89-1.53,4.94-5.11,4.94-3.57-.34-4.93-2.39-4.93-5.11ZM95,1.36h9.37v2.9h-2.9V22.14H97.91V4.26H95V1.36ZM109.49,12.6v9.54h-3.41V1.36h5.11c3.58,0,4.77,1.71,4.77,4.6V8.68c0,2.22-.85,3.58-2.73,4.09l3.41,9.37h-3.75Zm0-8.34v6.47h1.19A1.53,1.53,0,0,0,112.38,9V6c0-1.19-.51-1.7-1.7-1.7Zm14.64,10v7.84h-3.57V14.3L116.64,1.36h3.57l2.05,7.83,2-7.83h3.41L124.13,14.3Zm7.32,4.77-1.7,4.77h-2l.51-4.94h3.23Zm5.62-17.71h3.58V22.14h-3.58Zm8.52,7.83V22.31h-2.9V1.53h3.41l3.74,11.92V1.53h2.9V22.31h-3.07Zm12.26,0V22.31H155V1.53h3.41l3.74,11.92V1.53H165V22.31h-3.07Zm9.36,7.67v-10c0-3.23,1.53-5.62,5.28-5.62s5.28,2.39,5.28,5.62V16.86c0,3.23-1.53,5.62-5.28,5.62S167.21,20.09,167.21,16.86Zm7.15.51V6.13c0-1.19-.51-2.21-1.87-2.21-1.19,0-1.7.85-1.7,2.21V17.37c0,1.19.51,2.21,1.7,2.21S174.36,18.73,174.36,17.37Zm16.86-16L187.3,22.14h-3.74L179.64,1.36h3.58l2.38,14.48L188,1.36Zm-.51,20.78,3.92-20.78h3.91l3.92,20.78h-3.58l-.68-3.75h-3.57l-.69,3.75ZM195,15.67h2.72l-1.36-8.35Zm7.15-14.31h9.36v2.9h-2.89V22.14H205V4.26h-2.89Zm11.07,0h3.57V22.14h-3.57ZM219,16.86v-10c0-3.23,1.53-5.62,5.27-5.62s5.28,2.39,5.28,5.62V16.86c0,3.23-1.53,5.62-5.28,5.62S219,20.09,219,16.86Zm7,.51V6.13c0-1.19-.51-2.21-1.88-2.21-1.19,0-1.7.85-1.7,2.21V17.37c0,1.19.51,2.21,1.7,2.21C225.45,19.58,226,18.73,226,17.37Zm8.68-8.18V22.31h-2.89V1.53h3.4l3.75,11.92V1.53h2.89V22.31h-3.06Z"/><path class="cls-1" d="M40.87,55.17,44.78,34.4H48.7l3.92,20.77H49l-.68-3.75H44.78l-.68,3.75Zm4.42-6.64H48l-1.36-8.34-1.37,8.34ZM57,42.06V55.17H54.15V34.4h3.4L61.3,46.32V34.4h2.89V55.17H61.13L57,42.06Zm19.75-2.22v9.71c0,3.24-1.36,5.62-5.1,5.62H66.24V34.4h5.45C75.43,34.4,76.79,36.78,76.79,39.84ZM71.35,52.27a1.88,1.88,0,0,0,2-2V39.33a1.8,1.8,0,0,0-2-2H69.81V52.45l1.54-.18ZM82.24,34.4h3.58V55.17H82.24Zm8.69,7.66V55.17H88V34.4h3.41l3.74,11.92V34.4h2.9V55.17H95L90.93,42.06Zm9.36-7.66h8.18v2.89H103.7v6h3.57v2.89H103.7v9.2h-3.58l.17-20.94Zm13.28,11.23v9.54H110V34.4h5.11c3.57,0,4.76,1.7,4.76,4.59v2.73c0,2.21-.85,3.57-2.72,4.08l3.41,9.37h-3.75Zm0-8.51v6.47h1.2a1.52,1.52,0,0,0,1.7-1.7V38.82c0-1.19-.51-1.7-1.7-1.7Zm8,18.05,3.91-20.77h3.92l3.92,20.77h-3.58l-.68-3.75h-3.75l-.68,3.75Zm4.25-6.64h2.73l-1.36-8.34Zm8.69,2V47.85h3.23v2.89c0,1.19.51,1.88,1.71,1.88,1,0,1.53-.69,1.53-1.88v-.85c0-1.19-.51-1.87-1.53-2.89l-2.05-2c-2-2-2.89-3.23-2.89-5.62v-.68c0-2.55,1.53-4.59,4.94-4.59,3.57,0,4.93,1.7,4.93,4.76v1.71h-3.23V38.65c0-1.19-.51-1.7-1.7-1.7a1.53,1.53,0,0,0-1.71,1.7v.51c0,1.2.68,1.88,1.71,2.9l2.21,2.21c1.87,1.87,2.89,3.07,2.89,5.45v1c0,2.9-1.53,4.94-5.1,4.94s-4.94-2.38-4.94-5.11ZM145.59,34.4H155v2.89h-2.89V55.17h-3.58V37.29h-2.89Zm14.64,11.23v9.54h-3.58V34.4h5.11c3.58,0,4.77,1.7,4.77,4.59v2.73c0,2.21-.85,3.57-2.72,4.08l3.4,9.37h-3.74Zm0-8.51v6.47h1.19a1.52,1.52,0,0,0,1.7-1.7V38.82c0-1.19-.51-1.7-1.7-1.7Zm18.56-2.72V50.06c0,3.24-1.36,5.28-4.94,5.28-3.74,0-5.28-2-5.28-5.28V34.4h3.58v16c0,1.19.51,2.05,1.7,2.05s1.7-.86,1.7-2.05v-16ZM181,49.72v-10c0-3.23,1.54-5.61,5.28-5.61,3.92,0,4.94,2.21,4.94,5.27v2.39H188V39c0-1.36-.51-2-1.7-2s-1.7.85-1.7,2.21V50.4c0,1.19.51,2.22,1.7,2.22s1.7-.86,1.7-2V46.66h3.24v3.57c0,2.9-1.19,5.11-4.94,5.11S181,53,181,49.72ZM191.9,34.4h9.37v2.89h-2.9V55.17H194.8V37.29h-2.9Zm21.29,0V50.06c0,3.24-1.37,5.28-4.94,5.28-3.75,0-5.28-2-5.28-5.28V34.4h3.58v16c0,1.19.51,2.05,1.7,2.05s1.7-.86,1.7-2.05v-16Zm5.61,11.23v9.54h-3.57V34.4h5.11c3.57,0,4.77,1.7,4.77,4.59v2.73c0,2.21-.86,3.57-2.73,4.08l3.41,9.37H222Zm0-8.51v6.47H220a1.52,1.52,0,0,0,1.7-1.7V38.82c0-1.19-.51-1.7-1.7-1.7Zm8.52-2.72h8.34v2.89h-4.77v6h3.41v2.89h-3.41v6.31h4.77v2.89h-8.34V34.4Z"/></g></g></svg>