<svg width="58" height="69" viewBox="0 0 58 69" fill="none" xmlns="http://www.w3.org/2000/svg">
<g id="Frame" clip-path="url(#clip0_102_8634)">
<path id="Vector" d="M7.53869 15.8531H2.78023V15.0533C2.78023 13.7204 3.26142 13.1873 4.00994 12.3875L5.88125 10.4148C7.37829 8.81536 7.69909 7.80235 7.69909 6.04293V4.39013C7.69909 1.9376 6.52284 0.764648 3.90301 0.764648C1.33665 0.764648 0.0534659 2.09755 0.0534659 4.55008V6.6294H2.72676V4.44345C2.72676 3.37713 3.26142 3.11055 3.84954 3.11055C4.43767 3.11055 4.91886 3.32381 4.91886 4.39013V5.82966C4.91886 7.2692 4.81193 7.80235 3.84954 8.81536L2.1921 10.5748C0.588125 12.2809 0 13.4005 0 15.1066V18.3056H7.59216L7.53869 15.8531Z" fill="white"/>
<g id="Group">
<path id="Vector_2" d="M27.0005 66.6631V67.996C27.0005 68.3159 27.2678 68.5292 27.5351 68.5292H41.7036C42.0244 68.5292 42.2382 68.2626 42.2382 67.9427V66.5565C50.2047 63.944 56.1928 57.4928 57.5295 49.602V49.5487V49.4954C57.5295 49.1755 57.2622 48.9089 56.9414 48.9089H11.7092C11.3884 48.9089 11.1211 49.1755 11.1211 49.4954L11.1746 49.762C12.7251 57.6527 18.8736 64.1573 27.0005 66.6631ZM42.3452 29.6085C42.1848 29.8751 37.8006 36.1664 42.4521 41.2314C44.5907 43.5773 44.3769 45.6033 43.7888 46.9895H46.7828C47.371 44.9635 47.1571 42.351 44.6977 39.7386C41.2759 36.0064 44.7511 30.9414 44.8046 30.8881C45.2323 30.3016 45.0185 29.5552 44.3234 29.2353C43.6284 28.8621 42.7729 29.022 42.3452 29.6085ZM34.8065 46.9895H37.8006C38.3887 44.9635 38.1748 42.351 35.7154 39.7386C32.2936 36.0064 35.7689 30.9414 35.8223 30.8881C36.2501 30.3016 36.0362 29.5552 35.3411 29.2353C34.6461 28.9154 33.7906 29.0754 33.3629 29.6618C33.149 29.9284 28.8183 36.2197 33.4698 41.2847C35.6085 43.5773 35.3946 45.6033 34.8065 46.9895ZM24.3272 29.6085C24.1133 29.8751 19.7826 36.1664 24.4341 41.2314C26.5727 43.5773 26.3589 45.6033 25.7707 46.9895H28.7648C29.353 44.9635 29.1391 42.351 26.6797 39.7386C23.2579 36.0064 26.7331 30.9414 26.7866 30.8881C27.2143 30.3016 27.0005 29.5552 26.3054 29.2353C25.6638 28.8621 24.7549 29.022 24.3272 29.6085Z" fill="white"/>
</g>
<g id="Group_2">
<path id="Vector_3" d="M17.216 7.00261H19.0339V7.9623H15.9863V7.00261L17.8576 1.9376H16.2002V0.977909H19.1408V1.9376L17.216 7.00261ZM19.7824 0.924593H22.6161V1.88428H20.9587V3.91029H22.1349V4.86997H20.9587V7.00261H22.6161V7.9623H19.7824V0.924593ZM24.5409 4.71003V7.90898H23.3646V0.924593H25.0755C26.2518 0.924593 26.6795 1.51107 26.6795 2.47076V3.37713C26.6795 4.12355 26.4122 4.55008 25.7171 4.71003L26.8399 7.90898H25.6102L24.5409 4.71003ZM24.5409 1.88428V4.07023H24.9151C25.3429 4.07023 25.5033 3.85697 25.5033 3.48376V2.47076C25.5033 2.09754 25.3429 1.88428 24.9151 1.88428H24.5409ZM27.428 6.14956V2.73734C27.428 1.6177 27.9627 0.871277 29.1924 0.871277C30.4221 0.871277 31.0102 1.67102 31.0102 2.73734V6.14956C31.0102 7.21588 30.4756 8.01561 29.1924 8.01561C27.9627 8.01561 27.428 7.21588 27.428 6.14956ZM29.834 6.3095V2.52407C29.834 2.09754 29.6736 1.77765 29.2459 1.77765C28.8181 1.77765 28.6577 2.09754 28.6577 2.52407V6.3095C28.6577 6.73603 28.8181 7.05593 29.2459 7.05593C29.6736 7.05593 29.834 6.73603 29.834 6.3095Z" fill="white"/>
</g>
<g id="Group_3">
<path id="Vector_4" d="M18.3381 15.1066H17.2153V18.199H16.0391V11.2146H17.2153V14.2003H18.3381V11.2146H19.5143V18.199H18.3381V15.1066ZM23.7382 11.2146V16.4929C23.7382 17.5592 23.257 18.3056 22.0807 18.3056C20.851 18.3056 20.3163 17.6125 20.3163 16.4929V11.2146H21.4926V16.6528C21.4926 17.0793 21.653 17.3459 22.0807 17.3459C22.5084 17.3459 22.6688 17.0793 22.6688 16.6528V11.2146H23.7382ZM25.5025 13.8271V18.2523H24.5401V11.2679H25.7164L26.9996 15.2666V11.2679H27.962V18.2523H26.9461L25.5025 13.8271ZM30.5283 14.4668H32.1858V18.199H31.3303V17.4525C31.1699 17.9857 30.8491 18.3056 30.2075 18.3056C29.1917 18.3056 28.7105 17.5059 28.7105 16.4395V13.0273C28.7105 11.9077 29.2451 11.1613 30.4749 11.1613C31.758 11.1613 32.1858 11.9077 32.1858 12.9207V13.5605H31.1164V12.8674C31.1164 12.4408 30.956 12.1743 30.5283 12.1743C30.1006 12.1743 29.9402 12.4942 29.9402 12.9207V16.7061C29.9402 17.1326 30.1006 17.4525 30.5283 17.4525C30.9026 17.4525 31.1164 17.2393 31.1164 16.7594V15.5332H30.5818V14.4668H30.5283ZM32.9878 11.2146H35.8214V12.1743H34.164V14.2003H35.3402V15.16H34.164V17.2926H35.8214V18.2523H32.9878V11.2146ZM37.6927 15V18.199H36.5165V11.2146H38.2274C39.4037 11.2146 39.8314 11.801 39.8314 12.7607V13.6671C39.8314 14.4135 39.5641 14.8401 38.869 15L39.9918 18.199H38.7621L37.6927 15ZM37.6927 12.1743V14.3602H38.067C38.4947 14.3602 38.6551 14.1469 38.6551 13.7737V12.7607C38.6551 12.3875 38.4947 12.1743 38.067 12.1743H37.6927Z" fill="white"/>
</g>
</g>
<defs>
<clipPath id="clip0_102_8634">
<rect width="57.5293" height="67.7646" fill="white" transform="translate(0 0.764648)"/>
</clipPath>
</defs>
</svg>
